<svg xmlns="http://www.w3.org/2000/svg" viewBox="0 0 242.21 227.18"><defs><style>.cls-1{fill:#231f20;}.cls-2{fill:#3f57e1;}</style></defs><g id="Layer_2" data-name="Layer 2"><g id="Layer_1-2" data-name="Layer 1"><path class="cls-1" d="M41.17,223.06a34.58,34.58,0,0,1-8.73,3.15,44.16,44.16,0,0,1-9.28,1,26.51,26.51,0,0,1-9.28-1.58,21.17,21.17,0,0,1-7.33-4.51A20.48,20.48,0,0,1,1.73,214a26.05,26.05,0,0,1,0-18.67,20.58,20.58,0,0,1,4.82-7.13,21.17,21.17,0,0,1,7.33-4.51,26.51,26.51,0,0,1,9.28-1.58,34.65,34.65,0,0,1,9.49,1.24,18.6,18.6,0,0,1,7.61,4.28l-6.67,7.27a13.44,13.44,0,0,0-4.37-3,15.63,15.63,0,0,0-6.06-1,14.21,14.21,0,0,0-5.49,1,12.43,12.43,0,0,0-4.21,2.88,12.8,12.8,0,0,0-2.7,4.4,15.76,15.76,0,0,0-.94,5.52,15.6,15.6,0,0,0,.94,5.54,12.77,12.77,0,0,0,2.7,4.37,12.43,12.43,0,0,0,4.21,2.88,14,14,0,0,0,5.49,1,18,18,0,0,0,5.34-.7,20.28,20.28,0,0,0,3.57-1.42v-7h-7.7v-8.73h16.8Z"/><path class="cls-1" d="M47.17,204.63a24.28,24.28,0,0,1,1.73-9.34,20.58,20.58,0,0,1,4.82-7.13,21.17,21.17,0,0,1,7.33-4.51,28,28,0,0,1,18.56,0,21.17,21.17,0,0,1,7.33,4.51,20.58,20.58,0,0,1,4.82,7.13,26.05,26.05,0,0,1,0,18.67,20.48,20.48,0,0,1-4.82,7.13,21.17,21.17,0,0,1-7.33,4.51,28,28,0,0,1-18.56,0,21.17,21.17,0,0,1-7.33-4.51A20.48,20.48,0,0,1,48.9,214,24.27,24.27,0,0,1,47.17,204.63Zm9.82,0a15.6,15.6,0,0,0,.94,5.54,12.77,12.77,0,0,0,2.7,4.37,12.43,12.43,0,0,0,4.21,2.88,15.15,15.15,0,0,0,11,0A12.33,12.33,0,0,0,80,214.54a12.77,12.77,0,0,0,2.7-4.37,15.6,15.6,0,0,0,.94-5.54,15.76,15.76,0,0,0-.94-5.52,12.8,12.8,0,0,0-2.7-4.4,12.33,12.33,0,0,0-4.21-2.88,15.15,15.15,0,0,0-11,0,12.43,12.43,0,0,0-4.21,2.88,12.8,12.8,0,0,0-2.7,4.4A15.76,15.76,0,0,0,57,204.63Z"/><path class="cls-1" d="M132,183.16h7.82l18.68,42.93H147.81l-3.69-9.1H127.44l-3.57,9.1H113.44Zm3.64,12.49L130.41,209H140.9Z"/><path class="cls-1" d="M209.78,226.09h-26a28.18,28.18,0,0,1-9.31-1.49,20.86,20.86,0,0,1-7.37-4.33,20.35,20.35,0,0,1-4.85-6.91,23.2,23.2,0,0,1-1.75-9.28,21.92,21.92,0,0,1,1.78-8.91,21.41,21.41,0,0,1,4.88-7,22.06,22.06,0,0,1,7.28-4.51,24.84,24.84,0,0,1,9-1.61,24.45,24.45,0,0,1,9,1.64,22.34,22.34,0,0,1,7.27,4.55,21.2,21.2,0,0,1,4.88,6.94,21.71,21.71,0,0,1,1.79,8.88,19.69,19.69,0,0,1-.51,4.49,17.31,17.31,0,0,1-1.55,4.12,13.79,13.79,0,0,1-2.67,3.49,13.26,13.26,0,0,1-3.82,2.51v.12h12Zm-39.47-22a13.27,13.27,0,0,0,3.85,9.43,13.38,13.38,0,0,0,4.15,2.82,13.12,13.12,0,0,0,10.19,0,13.5,13.5,0,0,0,4.15-2.82,13.24,13.24,0,0,0,2.82-4.22,13.69,13.69,0,0,0,0-10.42,13.35,13.35,0,0,0-2.82-4.22,13.5,13.5,0,0,0-4.15-2.82,13.12,13.12,0,0,0-10.19,0,13.38,13.38,0,0,0-4.15,2.82,13.27,13.27,0,0,0-3.85,9.43Z"/><path class="cls-1" d="M235.67,193.65a6.7,6.7,0,0,0-3.13-2.15,11,11,0,0,0-3.72-.7,9.94,9.94,0,0,0-2.13.24,8.78,8.78,0,0,0-2.06.76,4.57,4.57,0,0,0-1.58,1.37,3.46,3.46,0,0,0-.6,2.06,3.42,3.42,0,0,0,1.45,3,13.94,13.94,0,0,0,3.67,1.76c1.48.48,3.06,1,4.76,1.45a20,20,0,0,1,4.76,2.06,11.3,11.3,0,0,1,3.67,3.58,10.92,10.92,0,0,1,1.45,6,13.8,13.8,0,0,1-1.33,6.25,12.59,12.59,0,0,1-3.61,4.42,15.05,15.05,0,0,1-5.27,2.61,24.22,24.22,0,0,1-14.1-.42,19.52,19.52,0,0,1-6.67-4.13l6.73-7.39a9.85,9.85,0,0,0,3.67,3,10.35,10.35,0,0,0,6.91.79,7.87,7.87,0,0,0,2.12-.82,4.65,4.65,0,0,0,1.52-1.4,3.49,3.49,0,0,0,.58-2,3.64,3.64,0,0,0-1.49-3.06,13.69,13.69,0,0,0-3.73-1.91q-2.23-.78-4.85-1.58a21.54,21.54,0,0,1-4.85-2.12,11.69,11.69,0,0,1-3.73-3.51,10.09,10.09,0,0,1-1.48-5.76A12.9,12.9,0,0,1,214,190a13.15,13.15,0,0,1,3.64-4.36,15.86,15.86,0,0,1,5.24-2.64,21.33,21.33,0,0,1,6.13-.88,24.31,24.31,0,0,1,7,1,16.25,16.25,0,0,1,6.12,3.46Z"/><path class="cls-2" d="M118.4,141.72V110.93a139.27,139.27,0,0,0-24.15,2.47C100,129.08,108.67,139.88,118.4,141.72Z"/><path class="cls-2" d="M118.4,36.73a146.7,146.7,0,0,1-26-2.71A129.35,129.35,0,0,0,87.3,67.9h31.1Z"/><path class="cls-2" d="M118.4,73.83H87.3a129.42,129.42,0,0,0,5.08,33.9,144.21,144.21,0,0,1,26-2.73Z"/><path class="cls-2" d="M118.4,0C108.66,1.85,100,12.66,94.23,28.36A142.2,142.2,0,0,0,118.4,30.8Z"/><path class="cls-2" d="M86.46,109.11a136.29,136.29,0,0,1-5.08-35.28H52c1.22,6.4,2.67,13.29,4.43,20.69a85.69,85.69,0,0,0,4.5,13.74,70.06,70.06,0,0,0,6.54,8.93C72.06,113.94,78.54,111.19,86.46,109.11Z"/><path class="cls-2" d="M88.27,114.77c-6.92,1.8-12.68,4.15-16.75,6.82a71.11,71.11,0,0,0,31.46,18C97,133.81,92,125.27,88.27,114.77Z"/><path class="cls-2" d="M156.29,32.66a137,137,0,0,1,5.07,35.24h30.52q.21-1.23.42-2.43A70.87,70.87,0,0,0,175.46,24.7C170.74,27.9,164.21,30.61,156.29,32.66Z"/><path class="cls-2" d="M103,2.12A71.26,71.26,0,0,0,71.37,20.28,60.24,60.24,0,0,0,88.26,27C92,16.48,97,7.92,103,2.12Z"/><path class="cls-2" d="M50.43,65.47c.14.79.28,1.61.43,2.43H81.37a137,137,0,0,1,5.07-35.24c-7.92-2-14.45-4.76-19.17-8A70.84,70.84,0,0,0,50.43,65.47Z"/><path class="cls-2" d="M194.9,47.75c2.44-20,1.93-30.66,1.93-30.66S189,14.72,167.12,8.9A77.52,77.52,0,0,1,194.9,47.75Z"/><path class="cls-2" d="M154.48,27a60.16,60.16,0,0,0,16.88-6.72A71.26,71.26,0,0,0,139.75,2.12C145.7,7.92,150.75,16.48,154.48,27Z"/><path class="cls-2" d="M190.79,73.83H161.36a136.7,136.7,0,0,1-5.09,35.28c7.92,2.08,14.4,4.83,19,8.08a70.06,70.06,0,0,0,6.54-8.93,85.69,85.69,0,0,0,4.5-13.74C188.11,87.12,189.56,80.23,190.79,73.83Z"/><path class="cls-2" d="M154.46,114.77c-3.72,10.5-8.77,19-14.71,24.83a71.11,71.11,0,0,0,31.46-18C167.14,118.92,161.38,116.57,154.46,114.77Z"/><path class="cls-2" d="M116.33,147.79a76.37,76.37,0,0,1-39.62-14.17c14.37,16.94,32.46,28.33,44.66,36.07,12.17-7.73,30.24-19.11,44.61-36A76.75,76.75,0,0,1,116.33,147.79Z"/><path class="cls-2" d="M75.54,8.92C53.75,14.73,45.9,17.09,45.9,17.09s-.51,10.65,1.93,30.67A77.35,77.35,0,0,1,75.54,8.92Z"/><path class="cls-2" d="M124.33,105a144.31,144.31,0,0,1,26,2.73,129.42,129.42,0,0,0,5.08-33.9h-31.1Z"/><path class="cls-2" d="M150.36,34a145.79,145.79,0,0,1-26,2.7V67.9h31.1A129.35,129.35,0,0,0,150.36,34Z"/><path class="cls-2" d="M124.33,0V30.8a142,142,0,0,0,24.16-2.44C142.78,12.66,134.07,1.85,124.33,0Z"/><path class="cls-2" d="M148.48,113.4a139.37,139.37,0,0,0-24.15-2.47v30.79C134.06,139.88,142.77,129.07,148.48,113.4Z"/></g></g></svg>